<?xml version="1.0" encoding="utf-8"?>
<svg xmlns="http://www.w3.org/2000/svg" xmlns:xlink="http://www.w3.org/1999/xlink" style="margin: auto; background: rgb(122, 206, 255); display: block; z-index: 1; position: relative; shape-rendering: auto;" width="500" height="350" preserveAspectRatio="xMidYMid" viewBox="0 0 500 350">
<g transform=""><g transform="translate(284.521 25.1316)">
  <animateTransform attributeName="transform" type="translate" keyTimes="0;1" values="-100 25.131565740647833;500 25.131565740647833" dur="37.03703703703703s" repeatCount="indefinite" begin="-4.635690845299257s"></animateTransform>
  <path d="M84.717,33.597c0.791-2.503,1.186-5.138,1.186-7.773C85.903,11.594,74.308,0,60.079,0 c-9.881,0-18.445,5.534-22.793,13.702c-1.581-0.527-3.426-0.791-5.138-0.791c-9.486,0-17.128,7.642-17.128,17.128 c0,1.186,0.132,2.372,0.395,3.426C6.719,34.783,0,42.424,0,51.515C0,61.66,8.169,69.829,18.314,69.829h63.373 C91.831,69.829,100,61.66,100,51.515C99.868,42.556,93.281,35.046,84.717,33.597z" fill="#98e8ff" transform="scale(0.33)"></path>
</g><g transform="translate(459.428 5.01976)">
  <animateTransform attributeName="transform" type="translate" keyTimes="0;1" values="-100 5.01976159638311;500 5.01976159638311" dur="37.03703703703703s" repeatCount="indefinite" begin="-15.43243757412571s"></animateTransform>
  <path d="M84.717,33.597c0.791-2.503,1.186-5.138,1.186-7.773C85.903,11.594,74.308,0,60.079,0 c-9.881,0-18.445,5.534-22.793,13.702c-1.581-0.527-3.426-0.791-5.138-0.791c-9.486,0-17.128,7.642-17.128,17.128 c0,1.186,0.132,2.372,0.395,3.426C6.719,34.783,0,42.424,0,51.515C0,61.66,8.169,69.829,18.314,69.829h63.373 C91.831,69.829,100,61.66,100,51.515C99.868,42.556,93.281,35.046,84.717,33.597z" fill="#98e8ff" transform="scale(0.33)"></path>
</g><g transform="translate(268.817 172.147)">
  <animateTransform attributeName="transform" type="translate" keyTimes="0;1" values="-100 172.14719870614064;500 172.14719870614064" dur="37.03703703703703s" repeatCount="indefinite" begin="-3.6663076374345596s"></animateTransform>
  <path d="M84.717,33.597c0.791-2.503,1.186-5.138,1.186-7.773C85.903,11.594,74.308,0,60.079,0 c-9.881,0-18.445,5.534-22.793,13.702c-1.581-0.527-3.426-0.791-5.138-0.791c-9.486,0-17.128,7.642-17.128,17.128 c0,1.186,0.132,2.372,0.395,3.426C6.719,34.783,0,42.424,0,51.515C0,61.66,8.169,69.829,18.314,69.829h63.373 C91.831,69.829,100,61.66,100,51.515C99.868,42.556,93.281,35.046,84.717,33.597z" fill="#98e8ff" transform="scale(0.33)"></path>
</g><g transform="translate(245.012 227.456)">
  <animateTransform attributeName="transform" type="translate" keyTimes="0;1" values="-100 227.45630757022354;500 227.45630757022354" dur="37.03703703703703s" repeatCount="indefinite" begin="-2.1968627081289553s"></animateTransform>
  <path d="M84.717,33.597c0.791-2.503,1.186-5.138,1.186-7.773C85.903,11.594,74.308,0,60.079,0 c-9.881,0-18.445,5.534-22.793,13.702c-1.581-0.527-3.426-0.791-5.138-0.791c-9.486,0-17.128,7.642-17.128,17.128 c0,1.186,0.132,2.372,0.395,3.426C6.719,34.783,0,42.424,0,51.515C0,61.66,8.169,69.829,18.314,69.829h63.373 C91.831,69.829,100,61.66,100,51.515C99.868,42.556,93.281,35.046,84.717,33.597z" fill="#98e8ff" transform="scale(0.33)"></path>
</g><g transform="translate(98.6211 292.614)">
  <animateTransform attributeName="transform" type="translate" keyTimes="0;1" values="-100 292.6144269451482;500 292.6144269451482" dur="18.518518518518515s" repeatCount="indefinite" begin="-5.548629201881807s"></animateTransform>
  <path d="M84.717,33.597c0.791-2.503,1.186-5.138,1.186-7.773C85.903,11.594,74.308,0,60.079,0 c-9.881,0-18.445,5.534-22.793,13.702c-1.581-0.527-3.426-0.791-5.138-0.791c-9.486,0-17.128,7.642-17.128,17.128 c0,1.186,0.132,2.372,0.395,3.426C6.719,34.783,0,42.424,0,51.515C0,61.66,8.169,69.829,18.314,69.829h63.373 C91.831,69.829,100,61.66,100,51.515C99.868,42.556,93.281,35.046,84.717,33.597z" fill="#c2f1ff" transform="scale(0.42)"></path>
</g><g transform="translate(15.0429 104.986)">
  <animateTransform attributeName="transform" type="translate" keyTimes="0;1" values="-100 104.98559627379784;500 104.98559627379784" dur="18.518518518518515s" repeatCount="indefinite" begin="-2.969053249491868s"></animateTransform>
  <path d="M84.717,33.597c0.791-2.503,1.186-5.138,1.186-7.773C85.903,11.594,74.308,0,60.079,0 c-9.881,0-18.445,5.534-22.793,13.702c-1.581-0.527-3.426-0.791-5.138-0.791c-9.486,0-17.128,7.642-17.128,17.128 c0,1.186,0.132,2.372,0.395,3.426C6.719,34.783,0,42.424,0,51.515C0,61.66,8.169,69.829,18.314,69.829h63.373 C91.831,69.829,100,61.66,100,51.515C99.868,42.556,93.281,35.046,84.717,33.597z" fill="#c2f1ff" transform="scale(0.42)"></path>
</g><g transform="translate(454.456 191.248)">
  <animateTransform attributeName="transform" type="translate" keyTimes="0;1" values="-100 191.24753243601324;500 191.24753243601324" dur="18.518518518518515s" repeatCount="indefinite" begin="-16.531196630754966s"></animateTransform>
  <path d="M84.717,33.597c0.791-2.503,1.186-5.138,1.186-7.773C85.903,11.594,74.308,0,60.079,0 c-9.881,0-18.445,5.534-22.793,13.702c-1.581-0.527-3.426-0.791-5.138-0.791c-9.486,0-17.128,7.642-17.128,17.128 c0,1.186,0.132,2.372,0.395,3.426C6.719,34.783,0,42.424,0,51.515C0,61.66,8.169,69.829,18.314,69.829h63.373 C91.831,69.829,100,61.66,100,51.515C99.868,42.556,93.281,35.046,84.717,33.597z" fill="#c2f1ff" transform="scale(0.42)"></path>
</g><g transform="translate(342.38 159.647)">
  <animateTransform attributeName="transform" type="translate" keyTimes="0;1" values="-100 159.64659765126908;500 159.64659765126908" dur="18.518518518518515s" repeatCount="indefinite" begin="-31.59057837893715s"></animateTransform>
  <path d="M84.717,33.597c0.791-2.503,1.186-5.138,1.186-7.773C85.903,11.594,74.308,0,60.079,0 c-9.881,0-18.445,5.534-22.793,13.702c-1.581-0.527-3.426-0.791-5.138-0.791c-9.486,0-17.128,7.642-17.128,17.128 c0,1.186,0.132,2.372,0.395,3.426C6.719,34.783,0,42.424,0,51.515C0,61.66,8.169,69.829,18.314,69.829h63.373 C91.831,69.829,100,61.66,100,51.515C99.868,42.556,93.281,35.046,84.717,33.597z" fill="#c2f1ff" transform="scale(0.42)"></path>
</g><g transform="translate(38.6651 91.3279)">
  <animateTransform attributeName="transform" type="translate" keyTimes="0;1" values="-100 91.3278588012689;500 91.3278588012689" dur="18.518518518518515s" repeatCount="indefinite" begin="-3.698134433664582s"></animateTransform>
  <path d="M84.717,33.597c0.791-2.503,1.186-5.138,1.186-7.773C85.903,11.594,74.308,0,60.079,0 c-9.881,0-18.445,5.534-22.793,13.702c-1.581-0.527-3.426-0.791-5.138-0.791c-9.486,0-17.128,7.642-17.128,17.128 c0,1.186,0.132,2.372,0.395,3.426C6.719,34.783,0,42.424,0,51.515C0,61.66,8.169,69.829,18.314,69.829h63.373 C91.831,69.829,100,61.66,100,51.515C99.868,42.556,93.281,35.046,84.717,33.597z" fill="#c2f1ff" transform="scale(0.42)"></path>
</g><g transform="translate(-63.5413 186.604)">
  <animateTransform attributeName="transform" type="translate" keyTimes="0;1" values="-100 186.60406142429235;500 186.60406142429235" dur="12.345679012345677s" repeatCount="indefinite" begin="-6.341365990159688s"></animateTransform>
  <path d="M84.717,33.597c0.791-2.503,1.186-5.138,1.186-7.773C85.903,11.594,74.308,0,60.079,0 c-9.881,0-18.445,5.534-22.793,13.702c-1.581-0.527-3.426-0.791-5.138-0.791c-9.486,0-17.128,7.642-17.128,17.128 c0,1.186,0.132,2.372,0.395,3.426C6.719,34.783,0,42.424,0,51.515C0,61.66,8.169,69.829,18.314,69.829h63.373 C91.831,69.829,100,61.66,100,51.515C99.868,42.556,93.281,35.046,84.717,33.597z" fill="#edfdff" transform="scale(0.51)"></path>
</g><g transform="translate(245.371 148.369)">
  <animateTransform attributeName="transform" type="translate" keyTimes="0;1" values="-100 148.36926467653225;500 148.36926467653225" dur="12.345679012345677s" repeatCount="indefinite" begin="-25.043272152928438s"></animateTransform>
  <path d="M84.717,33.597c0.791-2.503,1.186-5.138,1.186-7.773C85.903,11.594,74.308,0,60.079,0 c-9.881,0-18.445,5.534-22.793,13.702c-1.581-0.527-3.426-0.791-5.138-0.791c-9.486,0-17.128,7.642-17.128,17.128 c0,1.186,0.132,2.372,0.395,3.426C6.719,34.783,0,42.424,0,51.515C0,61.66,8.169,69.829,18.314,69.829h63.373 C91.831,69.829,100,61.66,100,51.515C99.868,42.556,93.281,35.046,84.717,33.597z" fill="#edfdff" transform="scale(0.51)"></path>
</g><g transform="translate(67.4631 293.905)">
  <animateTransform attributeName="transform" type="translate" keyTimes="0;1" values="-100 293.9052518438911;500 293.9052518438911" dur="12.345679012345677s" repeatCount="indefinite" begin="-33.72828855782723s"></animateTransform>
  <path d="M84.717,33.597c0.791-2.503,1.186-5.138,1.186-7.773C85.903,11.594,74.308,0,60.079,0 c-9.881,0-18.445,5.534-22.793,13.702c-1.581-0.527-3.426-0.791-5.138-0.791c-9.486,0-17.128,7.642-17.128,17.128 c0,1.186,0.132,2.372,0.395,3.426C6.719,34.783,0,42.424,0,51.515C0,61.66,8.169,69.829,18.314,69.829h63.373 C91.831,69.829,100,61.66,100,51.515C99.868,42.556,93.281,35.046,84.717,33.597z" fill="#edfdff" transform="scale(0.51)"></path>
</g><g transform="translate(244.713 20.104)">
  <animateTransform attributeName="transform" type="translate" keyTimes="0;1" values="-100 20.103951178439594;500 20.103951178439594" dur="12.345679012345677s" repeatCount="indefinite" begin="-0.33837768828879095s"></animateTransform>
  <path d="M84.717,33.597c0.791-2.503,1.186-5.138,1.186-7.773C85.903,11.594,74.308,0,60.079,0 c-9.881,0-18.445,5.534-22.793,13.702c-1.581-0.527-3.426-0.791-5.138-0.791c-9.486,0-17.128,7.642-17.128,17.128 c0,1.186,0.132,2.372,0.395,3.426C6.719,34.783,0,42.424,0,51.515C0,61.66,8.169,69.829,18.314,69.829h63.373 C91.831,69.829,100,61.66,100,51.515C99.868,42.556,93.281,35.046,84.717,33.597z" fill="#edfdff" transform="scale(0.51)"></path>
</g><g transform="translate(404.045 74.1926)">
  <animateTransform attributeName="transform" type="translate" keyTimes="0;1" values="-100 74.19259368691962;500 74.19259368691962" dur="12.345679012345677s" repeatCount="indefinite" begin="-28.308163606070835s"></animateTransform>
  <path d="M84.717,33.597c0.791-2.503,1.186-5.138,1.186-7.773C85.903,11.594,74.308,0,60.079,0 c-9.881,0-18.445,5.534-22.793,13.702c-1.581-0.527-3.426-0.791-5.138-0.791c-9.486,0-17.128,7.642-17.128,17.128 c0,1.186,0.132,2.372,0.395,3.426C6.719,34.783,0,42.424,0,51.515C0,61.66,8.169,69.829,18.314,69.829h63.373 C91.831,69.829,100,61.66,100,51.515C99.868,42.556,93.281,35.046,84.717,33.597z" fill="#edfdff" transform="scale(0.51)"></path>
</g><g transform="translate(109.322 202.895)">
  <animateTransform attributeName="transform" type="translate" keyTimes="0;1" values="-100 202.89474704823238;500 202.89474704823238" dur="9.259259259259258s" repeatCount="indefinite" begin="-21.16714535120794s"></animateTransform>
  <path d="M84.717,33.597c0.791-2.503,1.186-5.138,1.186-7.773C85.903,11.594,74.308,0,60.079,0 c-9.881,0-18.445,5.534-22.793,13.702c-1.581-0.527-3.426-0.791-5.138-0.791c-9.486,0-17.128,7.642-17.128,17.128 c0,1.186,0.132,2.372,0.395,3.426C6.719,34.783,0,42.424,0,51.515C0,61.66,8.169,69.829,18.314,69.829h63.373 C91.831,69.829,100,61.66,100,51.515C99.868,42.556,93.281,35.046,84.717,33.597z" fill="#ffffff" transform="scale(0.6)"></path>
</g><g transform="translate(185.568 319.252)">
  <animateTransform attributeName="transform" type="translate" keyTimes="0;1" values="-100 319.25244409138315;500 319.25244409138315" dur="9.259259259259258s" repeatCount="indefinite" begin="-13.084513041037772s"></animateTransform>
  <path d="M84.717,33.597c0.791-2.503,1.186-5.138,1.186-7.773C85.903,11.594,74.308,0,60.079,0 c-9.881,0-18.445,5.534-22.793,13.702c-1.581-0.527-3.426-0.791-5.138-0.791c-9.486,0-17.128,7.642-17.128,17.128 c0,1.186,0.132,2.372,0.395,3.426C6.719,34.783,0,42.424,0,51.515C0,61.66,8.169,69.829,18.314,69.829h63.373 C91.831,69.829,100,61.66,100,51.515C99.868,42.556,93.281,35.046,84.717,33.597z" fill="#ffffff" transform="scale(0.6)"></path>
</g><g transform="translate(183.477 319.9)">
  <animateTransform attributeName="transform" type="translate" keyTimes="0;1" values="-100 319.9000047689974;500 319.9000047689974" dur="9.259259259259258s" repeatCount="indefinite" begin="-31.570773569792767s"></animateTransform>
  <path d="M84.717,33.597c0.791-2.503,1.186-5.138,1.186-7.773C85.903,11.594,74.308,0,60.079,0 c-9.881,0-18.445,5.534-22.793,13.702c-1.581-0.527-3.426-0.791-5.138-0.791c-9.486,0-17.128,7.642-17.128,17.128 c0,1.186,0.132,2.372,0.395,3.426C6.719,34.783,0,42.424,0,51.515C0,61.66,8.169,69.829,18.314,69.829h63.373 C91.831,69.829,100,61.66,100,51.515C99.868,42.556,93.281,35.046,84.717,33.597z" fill="#ffffff" transform="scale(0.6)"></path>
</g><g transform="translate(43.6388 175.191)">
  <animateTransform attributeName="transform" type="translate" keyTimes="0;1" values="-100 175.19061830589573;500 175.19061830589573" dur="9.259259259259258s" repeatCount="indefinite" begin="-29.412773126933835s"></animateTransform>
  <path d="M84.717,33.597c0.791-2.503,1.186-5.138,1.186-7.773C85.903,11.594,74.308,0,60.079,0 c-9.881,0-18.445,5.534-22.793,13.702c-1.581-0.527-3.426-0.791-5.138-0.791c-9.486,0-17.128,7.642-17.128,17.128 c0,1.186,0.132,2.372,0.395,3.426C6.719,34.783,0,42.424,0,51.515C0,61.66,8.169,69.829,18.314,69.829h63.373 C91.831,69.829,100,61.66,100,51.515C99.868,42.556,93.281,35.046,84.717,33.597z" fill="#ffffff" transform="scale(0.6)"></path>
</g><g transform="translate(406.28 10.3802)">
  <animateTransform attributeName="transform" type="translate" keyTimes="0;1" values="-100 10.38020545447258;500 10.38020545447258" dur="9.259259259259258s" repeatCount="indefinite" begin="-16.490568214220932s"></animateTransform>
  <path d="M84.717,33.597c0.791-2.503,1.186-5.138,1.186-7.773C85.903,11.594,74.308,0,60.079,0 c-9.881,0-18.445,5.534-22.793,13.702c-1.581-0.527-3.426-0.791-5.138-0.791c-9.486,0-17.128,7.642-17.128,17.128 c0,1.186,0.132,2.372,0.395,3.426C6.719,34.783,0,42.424,0,51.515C0,61.66,8.169,69.829,18.314,69.829h63.373 C91.831,69.829,100,61.66,100,51.515C99.868,42.556,93.281,35.046,84.717,33.597z" fill="#ffffff" transform="scale(0.6)"></path>
</g></g>
</svg>